<svg id="Layer_1" data-name="Layer 1" xmlns="http://www.w3.org/2000/svg" viewBox="0 0 1600.11825 323.17578">
  <defs>
    <style>
      .cls-1, .cls-2, .cls-3 {
        isolation: isolate;
      }

      .cls-2 {
        font-size: 163.47211px;
        font-family: CaviarDreams-Bold, Caviar Dreams;
        font-weight: 700;
      }

      .cls-2, .cls-3, .cls-4 {
        fill: #fff;
      }

      .cls-3 {
        font-size: 95.35873px;
        font-family: CaviarDreams, Caviar Dreams;
      }
    </style>
  </defs>
  <g class="cls-1">
    <text class="cls-2" transform="translate(518.39803 191.28473)">Akili Studio</text>
    <text class="cls-3" transform="translate(518.39803 305.71442)">Inte</text>
    <text class="cls-3" transform="translate(689.54403 305.71442)">r</text>
    <text class="cls-3" transform="translate(722.18026 305.71442)">ior Design Se</text>
    <text class="cls-3" transform="translate(1329.81307 305.71442)">r</text>
    <text class="cls-3" transform="translate(1365.01034 305.71442)">vices</text>
  </g>
  <path class="cls-4" d="M364.86105,247.65469v55.45444H309.40656v5.67148h61.75616v-61.126Zm-296.17736,0H62.382v61.126h61.75615v-5.67157H68.68369ZM62.382,0V62.38629h6.30166V6.93181h55.45449V0ZM309.40656,0V6.93181h55.45449V62.38629h6.30167V0Z" transform="translate(-0.03312)"/>
  <g>
    <path class="cls-4" d="M297.90924,5.53677c-2.54907,11.23728-5.39218,22.38465-8.34741,33.49778-1.45645,5.563-3.005,11.09787-4.50879,16.64642l-4.68912,16.59131q-4.75533,16.571-9.97232,33.001-5.237,16.42379-10.59418,32.81086l-2.00262-3.323.12308.018.26162.02076a4.34348,4.34348,0,0,0,.54383.03277c.39618-.00888.78332.01065,1.18948-.01288a23.024,23.024,0,0,0,2.49262-.29989,19.27007,19.27007,0,0,0,2.52908-.53064,25.94865,25.94865,0,0,0,2.52533-.73221l2.50494-.90543c.83548-.30917,1.6391-.72366,2.46335-1.08023.81033-.3916,1.663-.69272,2.4444-1.1589l2.385-1.317a98.65952,98.65952,0,0,0,17.63769-13.2225c1.36264-1.25647,2.62082-2.62583,3.93793-3.93436,1.287-1.33841,2.65-2.60766,3.83157-4.04629l3.64063-4.22818c1.21152-1.41156,2.41785-2.82724,3.51718-4.33213,2.21448-2.99438,4.49387-5.93719,6.55219-9.04153,2.0483-3.11237,4.04583-6.25574,6.04516-9.3895l2.716,1.57123c-3.62377,8.113-7.32406,16.17038-11.41021,24.04733-2.00058,3.95945-4.14762,7.84195-6.32535,11.70768q-3.325,5.7665-6.7583,11.47467c-2.30817,3.79467-4.719,7.52972-7.14627,11.25433-2.45774,3.70734-5.03073,7.3425-7.656,10.94144-2.68786,3.555-5.43722,7.07653-8.43979,10.39428a57.5716,57.5716,0,0,1-9.87341,9.07721l-.37308-.46991a75.86347,75.86347,0,0,0,8.35874-10.12231c2.51983-3.58814,4.96487-7.23087,7.26892-10.97373,4.67724-7.43658,9.101-15.04513,13.45309-22.698,4.39264-7.63172,8.54367-15.40448,12.95-23.04331C313.511,96.08319,318.02,88.4736,322.319,80.77545l2.716,1.5712c-2.27963,2.99441-4.561,5.97919-6.79165,8.995-1.08087,1.53229-2.308,2.96045-3.4777,4.42756l-3.49722,4.40966c-1.11789,1.50672-2.36221,2.914-3.57608,4.34574l-3.62039,4.31411c-.58975.731-1.22147,1.426-1.87271,2.10422l-1.9043,2.07971c-1.28216,1.37522-2.50406,2.80951-3.83856,4.13831-2.68478,2.64459-5.29874,5.37152-8.20026,7.82031l-2.13052,1.88843c-.71927.62018-1.49832,1.17169-2.24512,1.76321-1.51877,1.15223-2.98529,2.38-4.627,3.38663l-2.411,1.58508c-.78836.55356-1.67905.95765-2.51676,1.44391-.858.45453-1.687.96152-2.57446,1.37287l-2.69934,1.17752c-.88477.42453-1.86758.66391-2.801,1.00253a23.644,23.644,0,0,1-2.91135.798,24.23429,24.23429,0,0,1-3.05014.50351c-.52417.05225-1.07364.0586-1.61057.08539a8.4965,8.4965,0,0,1-.85571-.01544l-.43781-.02115c-.15551-.00964-.38415-.04284-.572-.06915l-2.83477-.39728.832-2.9259q4.7157-16.58317,9.565-33.12552,4.83732-16.546,10.18683-32.93536l5.39047-16.3769c1.85611-5.44082,3.66736-10.89535,5.5708-16.32174,3.7645-10.86567,7.64111-21.697,11.81174-32.43857Z" transform="translate(-0.03312)"/>
    <path class="cls-4" d="M117.0882,300.48834c2.4021-11.07519,5.05-22.08581,7.79776-33.07007q2.05077-8.241,4.20227-16.455c1.43115-5.47681,2.85281-10.95679,4.35516-16.414l4.489-16.37769,4.65226-16.33209q4.66785-16.32834,9.84695-32.50708c6.911-21.56977,14.55954-42.90351,21.81693-64.34894L185.19,72.82507l5.60926-16.0466c1.91156-5.33819,3.88549-10.65832,5.98654-15.94162,2.0954-5.28766,4.28225-10.54718,6.83584-15.71136A66.03051,66.03051,0,0,1,207.9845,17.497a21.248,21.248,0,0,1,1.39718-1.84763l.7779-.91055c.29824-.29974.63116-.59489.95053-.88837a6.56575,6.56575,0,0,1,2.66659-1.56784,4.685,4.685,0,0,1,3.969.5842,7.35982,7.35982,0,0,1,2.17935,2.303,15.03543,15.03543,0,0,1,1.1449,2.27923,29.94574,29.94574,0,0,1,1.36267,4.415,81.0069,81.0069,0,0,1,1.46765,8.65232c.69049,5.73617.99512,11.4454,1.21576,17.14489.74737,22.78928.001,45.46821-1.26139,68.10618q-2.07549,33.94312-5.54446,67.74353c-2.29163,22.534-4.97153,45.026-8.2262,67.44732l-.5968-.06189c2.57889-45.21539,5.72956-90.34662,7.97748-135.47671l.83353-16.91718.69055-16.91238c.41913-11.2695.68585-22.54538.48575-33.77136-.10385-5.60907-.34336-11.21152-.85562-16.72824a76.0824,76.0824,0,0,0-1.15564-8.10743,27.06258,27.06258,0,0,0-1.02594-3.71948,10.35515,10.35515,0,0,0-.68915-1.54053,3.06517,3.06517,0,0,0-.63568-.82446c-.12912-.0708.08563-.05646-.08014-.04983a2.14616,2.14616,0,0,0-.94391.5802l-.62409.53228-.62286.68286a17.02678,17.02678,0,0,0-1.21637,1.491,62.95827,62.95827,0,0,0-4.3818,6.90079c-2.69971,4.85974-5.11155,9.951-7.43113,15.07873a629.05194,629.05194,0,0,0-23.71591,63.47785c-6.90051,21.5441-12.69192,43.43292-18.88412,65.18472q-4.65066,16.31379-9.52936,32.55945l-4.85522,16.25458-4.914,16.23919c-6.5881,21.64374-13.19287,43.28571-20.24621,64.8147Z" transform="translate(-0.03312)"/>
    <path class="cls-4" d="M216.48883,172.52289a31.5256,31.5256,0,0,1,5.12122-5.18,16,16,0,0,1,3.11923-1.96644,7.66573,7.66573,0,0,1,3.68368-.82513,5.50062,5.50062,0,0,1,3.50742,1.562c.23688.21894.43646.46906.65546.70374.19647.24957.37439.51129.5617.76739a2.77922,2.77922,0,0,0,1.08725,1.05048,3.03289,3.03289,0,0,0,2.86219-.64606,15.3363,15.3363,0,0,0,2.57427-2.3241,71.91141,71.91141,0,0,0,8.06586-11.7691c2.38-4.14926,4.60083-8.41434,6.65177-12.72516l2.66766-5.60718-1.06329,6.12217c-3.183,18.32681-6.84424,36.55532-11.34656,54.63076a266.31488,266.31488,0,0,1-8.01068,26.83851,68.10638,68.10638,0,0,1-6.07517,12.92333,19.13352,19.13352,0,0,1-2.37927,2.99665,7.78678,7.78678,0,0,1-.75653.69427,6.48924,6.48924,0,0,1-.86994.64313c-.16049.10022-.30645.20264-.481.29761l-.5781.26452c-.09951.04175-.18948.08515-.29757.123l-.38022.09216a2.79937,2.79937,0,0,1-.82025.10157,3.314,3.314,0,0,1-.97025-.14985,3.58437,3.58437,0,0,1-.91482-.48864,5.36556,5.36556,0,0,1-.64582-.66706c-.13339-.21179-.26016-.43115-.3775-.65362a7.25637,7.25637,0,0,1-.58328-2.247,19.9657,19.9657,0,0,1-.004-3.82324,89.68583,89.68583,0,0,1,2.63382-13.989c1.16891-4.54632,2.49612-9.03448,3.9249-13.486q4.29332-13.35186,9.71093-26.29407a221.2516,221.2516,0,0,1,12.29428-25.31991,71.10514,71.10514,0,0,1,8.28705-11.81571,18.0895,18.0895,0,0,1,6.44126-4.877,9.635,9.635,0,0,1,1.17019-.361,8.54866,8.54866,0,0,1,1.2562-.1821,17.24329,17.24329,0,0,1,2.24243.06494,15.97484,15.97484,0,0,1,2.14456.467,18.29548,18.29548,0,0,1,1.97138.77,24.66178,24.66178,0,0,1,6.30618,4.528,65.1413,65.1413,0,0,1,4.97793,5.28464c3.09873,3.60919,5.92865,7.28476,8.86087,10.81479a107.93088,107.93088,0,0,0,9.14151,9.97986,41.9777,41.9777,0,0,0,10.53177,7.52154,26.74881,26.74881,0,0,0,12.03882,2.72565,33.50722,33.50722,0,0,0,12.29837-2.84766,69.68581,69.68581,0,0,0,11.58258-6.57806c3.76752-2.48523,7.34265-5.339,10.90027-8.20111,3.50519-2.94324,6.97479-5.94708,10.32614-9.10089,3.39411-3.10361,6.69373-6.32562,9.96759-9.57587,6.52124-6.52987,12.85358-13.27658,19.0669-20.13919q4.65472-5.15212,9.23193-10.38409l9.06757-10.544c6.02514-7.05261,11.89007-14.24774,17.70324-21.48666l.48578.35214c-5.17126,7.73666-10.67383,15.2334-16.22912,22.69931q-8.37516,11.166-17.29352,21.93149c-5.95435,7.16641-12.05676,14.22513-18.47485,21.01919a271.1345,271.1345,0,0,1-20.18372,19.57636c-7.18774,6.08429-14.68817,11.98846-23.68845,16.07953a38.49913,38.49913,0,0,1-14.65176,3.43481,31.75014,31.75014,0,0,1-14.85455-3.41479A47.97517,47.97517,0,0,1,297.7085,173.213,102.19047,102.19047,0,0,1,288.19757,162.53c-2.9274-3.67346-5.69382-7.414-8.57745-10.90851a59.91357,59.91357,0,0,0-4.46524-4.943,19.3055,19.3055,0,0,0-4.8714-3.6839,13.47173,13.47173,0,0,0-1.25846-.51923,11.47462,11.47462,0,0,0-1.246-.29825c-.414-.07409-.81918-.019-1.23092-.06094a3.33788,3.33788,0,0,0-.46463.05411,4.68552,4.68552,0,0,0-.49283.14487,9.33482,9.33482,0,0,0-2.27893,1.35183,22.6782,22.6782,0,0,0-2.273,2.12662,66.62012,66.62012,0,0,0-7.84049,10.837,216.2297,216.2297,0,0,0-12.3743,24.59381c-3.66754,8.45941-7.00851,17.07873-9.95666,25.81738-1.47177,4.36938-2.84149,8.77112-4.04855,13.202a86.55859,86.55859,0,0,0-2.71982,13.31744,16.66474,16.66474,0,0,0-.05518,3.12964,4.1346,4.1346,0,0,0,.23648,1.11828.24124.24124,0,0,1,.04657.10663c.00659-.01141-.01282-.04681-.04257-.04114-.02582-.00958-.08725-.08959-.15366-.079-.06219-.00006-.07187-.04583-.11651-.0241a2.03239,2.03239,0,0,0,.65817-.30976,3.36822,3.36822,0,0,0,.53272-.38366,4.75261,4.75261,0,0,0,.53128-.4748,15.78245,15.78245,0,0,0,1.971-2.42511,65.24917,65.24917,0,0,0,5.90751-12.16577c3.28427-8.57757,5.90014-17.472,8.3489-26.39545,4.81873-17.88183,8.82514-36.02429,12.34506-54.22775l1.60431.515c-2.16485,4.335-4.47207,8.56546-6.95742,12.71441a73.004,73.004,0,0,1-8.4534,11.83094,16.38012,16.38012,0,0,1-2.81983,2.44213,6.26154,6.26154,0,0,1-1.78607.82666,3.0293,3.0293,0,0,1-2.11319-.17218,3.75818,3.75818,0,0,1-1.46655-1.42968c-.16425-.23127-.31964-.47138-.48972-.69727-.18872-.20636-.36026-.434-.56109-.62591a4.58,4.58,0,0,0-2.91034-1.36878,6.8409,6.8409,0,0,0-3.29242.68591,15.24169,15.24169,0,0,0-3.00382,1.81745,30.89817,30.89817,0,0,0-5.09576,4.9621Z" transform="translate(-0.03312)"/>
    <path class="cls-4" d="M218.39221,137.57281c-21.12424,6.87439-42.21762,13.83881-63.21255,21.07557-21.02115,7.1524-41.97031,14.512-62.75052,22.27258-10.383,3.89709-20.715,7.921-30.93057,12.17993l-7.66945,3.15936-7.62087,3.245c-5.05458,2.196-10.13612,4.34393-15.07394,6.70471A103.4861,103.4861,0,0,0,16.891,213.86829c-1.11323.70745-2.15724,1.55749-3.24336,2.33032l-1.5269,1.26471-.76584.63251-.7137.67187a27.62478,27.62478,0,0,0-4.97707,5.82544,11.297,11.297,0,0,0,.53873,13.60529,23.41815,23.41815,0,0,0,2.59991,2.95965,36.75707,36.75707,0,0,0,3.093,2.5968,44.65256,44.65256,0,0,0,7.01809,4.25788l-.205.56384a38.912,38.912,0,0,1-7.78016-3.33374,27.87129,27.87129,0,0,1-6.849-5.311,15.17556,15.17556,0,0,1-3.96209-8.23974,15.56605,15.56605,0,0,1,1.85016-9.13526c6.02663-10.71539,16.65667-16.65857,26.52861-21.7359,5.02138-2.55987,10.12854-4.84662,15.26587-7.06262,2.57581-1.0813,5.17314-2.1095,7.76168-3.15466l7.799-3.03c10.45639-3.87537,20.95717-7.57159,31.48519-11.17072,21.0478-7.21905,42.21612-14.01879,63.44461-20.60785q15.94189-4.87788,31.93075-9.58666,15.98393-4.72591,32.03687-9.21055Z" transform="translate(-0.03312)"/>
  </g>
</svg>
