<svg id="Layer_1" data-name="Layer 1" xmlns="http://www.w3.org/2000/svg" viewBox="0 0 1599.07809 372.35315">
  <defs>
    <style>
      .cls-1 {
        font-size: 163.47211px;
        font-family: CaviarDreams-Bold, Caviar Dreams;
        font-weight: 700;
        letter-spacing: 0.005em;
      }

      .cls-1, .cls-5 {
        fill: #2e2c2a;
      }

      .cls-2 {
        font-size: 95.35873px;
        font-family: CaviarDreams, Caviar Dreams;
        font-weight: 400;
        letter-spacing: 0.04em;
      }

      .cls-3 {
        letter-spacing: 0.04977em;
      }

      .cls-4 {
        letter-spacing: 0.07662em;
      }
    </style>
  </defs>
  <text class="cls-1" transform="translate(516.88082 191.28474)">Akili Studio<tspan class="cls-2"><tspan x="0" y="114.42969">Inte</tspan><tspan class="cls-3" x="171.146" y="114.42969">r</tspan><tspan x="203.78223" y="114.42969">ior Design Se</tspan><tspan class="cls-4" x="811.41504" y="114.42969">r</tspan><tspan x="846.6123" y="114.42969">vices</tspan></tspan></text>
  <path class="cls-5" d="M507.50022,393.92855V449.383H452.04573v5.67148h61.75614v-61.126Zm-296.17737,0H205.0212v61.126h61.75614V449.383H211.32285ZM205.0212,146.27386v62.38629h6.30165V153.20567h55.45449v-6.93181Zm247.02453,0v6.93181h55.45449v55.45448h6.30165V146.27386Z" transform="translate(-144.18949 -146.27386)"/>
  <g>
    <path class="cls-5" d="M440.30933,151.73755l-4.87052,16.53583-4.94888,16.5119-9.90744,33.02078L410.5231,250.78043l-10.1719,32.94-.32764-.5437a17.46667,17.46667,0,0,0,5.41345-.3331,21.21055,21.21055,0,0,0,2.68994-.64194c.878-.28824,1.79135-.4689,2.64157-.84479l2.58692-1.01941c.857-.3529,1.671-.807,2.509-1.2055.82147-.43216,1.68967-.77725,2.47354-1.28089l2.39444-1.43176a105.38378,105.38378,0,0,0,17.432-13.93164c1.35135-1.28561,2.59491-2.68115,3.89795-4.01654l1.93374-2.02454c.65354-.6668,1.28815-1.35086,1.88178-2.072l3.64325-4.25412c1.21438-1.41845,2.43-2.83593,3.53531-4.34283l3.39953-4.45233c1.12244-1.49189,2.30066-2.94248,3.33444-4.49945l6.35535-9.22556.45883.26541c-3.91732,7.934-7.94189,15.81137-12.13885,23.6q-3.14823,5.84065-6.38449,11.63412-3.27045,5.7741-6.64746,11.48764-3.38782,5.70694-6.91245,11.33234-3.55106,5.60871-7.32486,11.07355c-2.52612,3.63406-5.13739,7.21478-7.94858,10.63751a65.204,65.204,0,0,1-9.23758,9.51642l-.06219-.07831a64.97978,64.97978,0,0,0,8.9946-9.683q4.06686-5.22492,7.76016-10.73057c4.92233-7.33435,9.54251-14.86953,14.018-22.48788q6.67415-11.45165,13.00174-23.10391c4.21588-7.76706,8.4006-15.55655,12.40609-23.43384l.4588.26544-6.48147,9.15888c-1.04343,1.5527-2.23191,2.99975-3.36423,4.48748l-3.42889,4.43955c-1.11191,1.50467-2.34693,2.91012-3.558,4.335l-3.61773,4.28818c-.58945.72687-1.22019,1.417-1.87012,2.09012l-1.923,2.04352c-1.29624,1.34832-2.53272,2.75646-3.87854,4.05612a107.87693,107.87693,0,0,1-17.4087,14.14944l-2.40148,1.47031c-.78589.51611-1.661.87619-2.48764,1.32193-.84421.41263-1.66291.87994-2.52884,1.24756l-2.61741,1.06356c-.85946.38987-1.79168.58725-2.68472.89a21.90983,21.90983,0,0,1-2.75049.68674,18.01025,18.01025,0,0,1-5.72335.39123l-.47577-.0549.148-.489,9.9873-32.9964,10.09976-32.962L429.874,184.597l5.13071-16.45629,5.209-16.43235Z" transform="translate(-144.18949 -146.27386)"/>
    <path class="cls-5" d="M259.96866,446.82751c5.767-21.88464,11.83746-43.6875,18.01922-65.45837l9.3703-32.629c3.15113-10.86865,6.453-21.69293,9.74027-32.521,6.60666-21.64646,13.39084-43.24024,20.53323-64.71653,7.21521-21.44623,14.35224-42.944,23.05426-63.85943,2.1926-5.21939,4.477-10.40711,7.09485-15.442a65.288,65.288,0,0,1,4.37461-7.32031,19.66112,19.66112,0,0,1,1.32067-1.69794l.7125-.815c.26123-.25363.54208-.49252.813-.73883a4.76794,4.76794,0,0,1,1.94208-1.15305,2.72873,2.72873,0,0,1,2.33444.3591,7.72691,7.72691,0,0,1,2.48489,3.65,28.62527,28.62527,0,0,1,1.2254,4.12189,78.63661,78.63661,0,0,1,1.34668,8.42282c.62482,5.64392.886,11.30981,1.05533,16.97128.30939,11.32611.14774,22.65124-.16562,33.9667-.32242,11.316-.83123,22.62427-1.43927,33.92606-1.19061,22.60577-2.91153,45.17746-4.83017,67.72824-1.91815,22.55115-4.028,45.08569-6.48092,67.58423l-.09949-.01038q3.173-33.79605,5.85886-67.63275,2.63054-33.83953,4.57818-67.72235c.61807-11.29489,1.137-22.59537,1.46945-33.9003.32352-11.30383.49512-22.61624.19684-33.914-.15515-5.64715-.438-11.29291-1.016-16.90185a77.84059,77.84059,0,0,0-1.27661-8.337,27.85372,27.85372,0,0,0-1.16321-4.01257,7.0707,7.0707,0,0,0-2.16418-3.29724c-1.0286-.76886-2.40958-.20288-3.38309.72009-.25281.2283-.51416.44577-.76157.68182l-.68826.77845a18.99878,18.99878,0,0,0-1.29285,1.64068,64.67409,64.67409,0,0,0-4.37,7.20892c-2.63544,4.98905-4.94974,10.15213-7.17212,15.34812-4.41345,10.41052-8.37979,21.01022-12.21668,31.6513q-5.74086,15.969-10.98227,32.11374c-7.0155,21.51325-13.67132,43.142-20.16781,64.81714L288.1875,348.9837l-9.54013,32.57447-9.34021,32.63318-9.242,32.66229Z" transform="translate(-144.18949 -146.27386)"/>
    <path class="cls-5" d="M359.32568,318.94977a31.26736,31.26736,0,0,1,5.11063-5.08924,15.694,15.694,0,0,1,3.07114-1.90435,7.32746,7.32746,0,0,1,3.52066-.76709,5.11549,5.11549,0,0,1,3.25863,1.4815c.9412.78772,1.31217,2.10511,2.39313,2.61792a3.43057,3.43057,0,0,0,3.29431-.64953,15.74755,15.74755,0,0,0,2.67658-2.37329,72.31268,72.31268,0,0,0,8.22732-11.7949q3.63583-6.2237,6.77915-12.72067l.45245-.93167-.185,1.01752c-3.32336,18.27542-7.12845,36.46805-11.76263,54.46286a273.36263,273.36263,0,0,1-8.15158,26.65387,67.00317,67.00317,0,0,1-6.00531,12.60766,17.78934,17.78934,0,0,1-2.20917,2.75855,6.51862,6.51862,0,0,1-.66266.60278,5.179,5.179,0,0,1-.72943.535,3.43359,3.43359,0,0,1-1.76593.64172,1.72635,1.72635,0,0,1-1.58566-1.12714,5.83571,5.83571,0,0,1-.43879-1.77667,18.50106,18.50106,0,0,1,.02067-3.5343,88.24006,88.24006,0,0,1,2.66964-13.70917c1.18482-4.49823,2.52973-8.95038,3.97641-13.36767q4.34706-13.25025,9.81333-26.09546a219.326,219.326,0,0,1,12.32751-25.01746,69.36874,69.36874,0,0,1,8.09964-11.40918,16.23755,16.23755,0,0,1,5.65448-4.29565,6.17022,6.17022,0,0,1,1.81519-.40012,15.76989,15.76989,0,0,1,1.82159.06308,13.93431,13.93431,0,0,1,1.77078.39658,16.17184,16.17184,0,0,1,1.67493.66546,22.32644,22.32644,0,0,1,5.70956,4.1767,62.70656,62.70656,0,0,1,4.7638,5.14331c3.00863,3.56192,5.81152,7.265,8.74118,10.85526a106.25558,106.25558,0,0,0,9.29034,10.27789,44.52321,44.52321,0,0,0,11.1286,8.02417,28.73807,28.73807,0,0,0,13.22013,3.0188,35.5032,35.5032,0,0,0,13.28439-3.10083,72.08414,72.08414,0,0,0,11.96829-6.89032c3.83753-2.5788,7.4383-5.50135,11.02094-8.43225,14.13617-11.99836,26.874-25.58176,39.079-39.55118,6.10345-6.99286,12.029-14.14029,17.86072-21.36328,5.82959-7.22446,11.55426-14.53745,17.08783-21.99286l.081.05868q-16.4056,22.51863-34.57678,43.68949c-12.139,14.05392-24.80988,27.7265-38.94019,39.86038-3.58429,2.96692-7.18756,5.92584-11.04626,8.55176a72.67379,72.67379,0,0,1-12.13581,6.98431,36.49147,36.49147,0,0,1-13.66577,3.18164,29.74036,29.74036,0,0,1-13.67322-3.12158A45.49765,45.49765,0,0,1,442.08,317.66266a103.66221,103.66221,0,0,1-9.362-10.38483c-2.93-3.61322-5.72348-7.32632-8.69721-10.868a61.82831,61.82831,0,0,0-4.67935-5.08429,21.47076,21.47076,0,0,0-5.468-4.03516,15.34368,15.34368,0,0,0-1.55493-.62371,13.15512,13.15512,0,0,0-1.61972-.36866,15.36238,15.36238,0,0,0-1.65173-.0628,5.285,5.285,0,0,0-1.5687.34192,15.4811,15.4811,0,0,0-5.33874,4.05981,68.6196,68.6196,0,0,0-8.0279,11.2435,218.4085,218.4085,0,0,0-12.34106,24.89633q-5.45691,12.79707-9.85431,26.01593c-1.45383,4.40363-2.80585,8.84137-3.997,13.32038a87.71906,87.71906,0,0,0-2.684,13.59729,17.94851,17.94851,0,0,0-.03052,3.41864,5.29524,5.29524,0,0,0,.381,1.58856,1.12953,1.12953,0,0,0,1.05655.79437,2.90769,2.90769,0,0,0,1.44947-.54687,4.6664,4.6664,0,0,0,.67321-.49176,6.01322,6.01322,0,0,0,.62513-.56629,17.23439,17.23439,0,0,0,2.14111-2.66321,66.52827,66.52827,0,0,0,5.97735-12.48144,276.2556,276.2556,0,0,0,8.208-26.58008c4.68692-17.96246,8.5495-36.14081,11.929-54.39566l.26736.08582q-3.17605,6.48747-6.83008,12.7189a72.49331,72.49331,0,0,1-8.2919,11.80517,15.92252,15.92252,0,0,1-2.71749,2.39295,5.82337,5.82337,0,0,1-1.64881.78088,2.5947,2.5947,0,0,1-1.81836-.12988,3.35771,3.35771,0,0,1-1.3085-1.27173c-.17386-.24158-.33865-.49072-.51974-.72644-.2013-.2182-.38456-.45514-.60041-.65832a4.96218,4.96218,0,0,0-3.15912-1.44935,7.19068,7.19068,0,0,0-3.45544.744,15.56865,15.56865,0,0,0-3.05191,1.87952,31.16179,31.16179,0,0,0-5.10635,5.05292Z" transform="translate(-144.18949 -146.27386)"/>
    <path class="cls-5" d="M360.95972,283.60715q-31.87107,9.721-63.52716,20.12625c-21.10755,6.91766-42.148,14.044-63.03972,21.57892-10.442,3.77691-20.8438,7.6654-31.16167,11.75946-10.32213,4.07507-20.59209,8.31286-30.55687,13.16662a102.5355,102.5355,0,0,0-14.45589,8.091c-1.14206.77014-2.1948,1.67022-3.29675,2.49987l-1.558,1.35859-.77942.67932-.7333.726a27.84745,27.84745,0,0,0-5.11554,6.41016,12.63569,12.63569,0,0,0,1.22152,15.19159,27.31916,27.31916,0,0,0,6.17016,5.46136,41.44819,41.44819,0,0,0,7.34048,3.8653l-.03418.094a41.62711,41.62711,0,0,1-7.45775-3.72632,27.67573,27.67573,0,0,1-6.37178-5.40607,13.171,13.171,0,0,1-1.42912-15.78869,28.51579,28.51579,0,0,1,5.16337-6.621l.73888-.74689.78285-.69782,1.56655-1.39569c1.10594-.85235,2.16021-1.77282,3.31129-2.56805a103.30941,103.30941,0,0,1,14.497-8.32477c10.0111-4.87237,20.29635-9.11182,30.63393-13.1897,10.3541-4.04022,20.78508-7.87188,31.25411-11.59124,20.93629-7.44464,42.01329-14.47766,63.15538-21.30146q31.72842-10.18955,63.653-19.74652Z" transform="translate(-144.18949 -146.27386)"/>
  </g>
</svg>
