<svg id="Layer_1" data-name="Layer 1" xmlns="http://www.w3.org/2000/svg" viewBox="0 0 1600.62842 372.35315">
  <defs>
    <style>
      .cls-1 {
        font-size: 163.47211px;
        font-family: CaviarDreams-Bold, Caviar Dreams;
        font-weight: 700;
        letter-spacing: 0.005em;
      }

      .cls-1, .cls-5 {
        fill: #2e2c2a;
      }

      .cls-2 {
        font-size: 95.35873px;
        font-family: CaviarDreams, Caviar Dreams;
        font-weight: 400;
        letter-spacing: 0.04em;
      }

      .cls-3 {
        letter-spacing: 0.04977em;
      }

      .cls-4 {
        letter-spacing: 0.07662em;
      }
    </style>
  </defs>
  <text class="cls-1" transform="translate(518.43116 191.28474)">Akili Studio<tspan class="cls-2"><tspan x="0" y="114.42969">Inte</tspan><tspan class="cls-3" x="171.146" y="114.42969">r</tspan><tspan x="203.78223" y="114.42969">ior Design Se</tspan><tspan class="cls-4" x="811.41504" y="114.42969">r</tspan><tspan x="846.6123" y="114.42969">vices</tspan></tspan></text>
  <path class="cls-5" d="M507.50022,393.92855V449.383H452.04573v5.67148h61.75614v-61.126Zm-296.17737,0H205.0212v61.126h61.75614V449.383H211.32285ZM205.0212,146.27386v62.38629h6.30165V153.20567h55.45449v-6.93181Zm247.02453,0v6.93181h55.45449v55.45448h6.30165V146.27386Z" transform="translate(-142.63916 -146.27386)"/>
  <g>
    <path class="cls-5" d="M440.5484,151.81064c-2.54907,11.23727-5.39218,22.38464-8.34741,33.49777-1.45645,5.563-3.005,11.09787-4.50879,16.64642l-4.68912,16.59131q-4.75533,16.57106-9.97232,33.001-5.237,16.42379-10.59418,32.81085l-2.00262-3.323.12308.018.26162.02075a4.342,4.342,0,0,0,.54383.03278c.39618-.00888.78332.01065,1.18948-.01288a23.02719,23.02719,0,0,0,2.49262-.2999,19.26493,19.26493,0,0,0,2.52908-.53064,25.93827,25.93827,0,0,0,2.52533-.73221l2.50494-.90542c.83548-.30917,1.6391-.72366,2.46335-1.08023.81033-.3916,1.663-.69272,2.4444-1.15891l2.385-1.317a98.65879,98.65879,0,0,0,17.63769-13.22251c1.36264-1.25647,2.62082-2.62582,3.93793-3.93435,1.287-1.33841,2.65-2.60767,3.83157-4.0463l3.64063-4.22818c1.21152-1.41156,2.41785-2.82724,3.51718-4.33212,2.21448-2.99439,4.49387-5.9372,6.55219-9.04154,2.0483-3.11236,4.04583-6.25573,6.04516-9.38949l2.716,1.57123c-3.62377,8.113-7.32406,16.17038-11.41021,24.04733-2.00058,3.95944-4.14762,7.84195-6.32535,11.70767q-3.325,5.7665-6.7583,11.47467c-2.30817,3.79468-4.719,7.52973-7.14627,11.25434-2.45773,3.70733-5.03073,7.34249-7.656,10.94143-2.68786,3.55506-5.43722,7.07654-8.43979,10.39429a57.572,57.572,0,0,1-9.87341,9.07721l-.37308-.46991a75.86407,75.86407,0,0,0,8.35874-10.12232c2.51983-3.58813,4.96487-7.23086,7.26892-10.97372,4.67724-7.43658,9.101-15.04514,13.45309-22.698,4.39264-7.63171,8.54367-15.40448,12.95-23.0433,4.32672-7.67874,8.83572-15.28833,13.13473-22.98648l2.716,1.57119c-2.27963,2.99442-4.561,5.97919-6.79165,8.995-1.08087,1.53229-2.308,2.96045-3.47769,4.42755l-3.49723,4.40967c-1.11789,1.50671-2.36221,2.914-3.57608,4.34573l-3.62039,4.31412c-.58975.731-1.22147,1.426-1.87271,2.10422l-1.9043,2.07971c-1.28216,1.37521-2.50406,2.80951-3.83856,4.1383-2.68478,2.6446-5.29874,5.37153-8.20026,7.82032l-2.13052,1.88842c-.71927.62018-1.49832,1.1717-2.24512,1.76322-1.51876,1.15222-2.98529,2.38-4.627,3.38663l-2.411,1.58508c-.78836.55356-1.67905.95764-2.51676,1.44391-.858.45453-1.687.96152-2.57446,1.37286l-2.69934,1.17752c-.88477.42453-1.86758.66391-2.801,1.00254a23.6451,23.6451,0,0,1-2.91135.798,24.23124,24.23124,0,0,1-3.05014.50351c-.52417.05225-1.07364.05859-1.61057.08539a8.49814,8.49814,0,0,1-.85571-.01544l-.4378-.02115c-.15552-.00965-.38416-.04285-.572-.06916l-2.83478-.39727.832-2.92591q4.7157-16.58317,9.565-33.12552,4.83733-16.546,10.18683-32.93536l5.39047-16.37689c1.85611-5.44083,3.66736-10.89536,5.5708-16.32175,3.7645-10.86566,7.64112-21.697,11.81174-32.43857Z" transform="translate(-142.63916 -146.27386)"/>
    <path class="cls-5" d="M259.72736,446.76221c2.4021-11.0752,5.05-22.08582,7.79776-33.07007q2.05077-8.241,4.20227-16.455c1.43115-5.47681,2.85281-10.95679,4.35516-16.414l4.489-16.37769,4.65226-16.33209q4.66785-16.32834,9.84695-32.50708c6.911-21.56976,14.55954-42.9035,21.81693-64.34894l10.94149-32.15841,5.60926-16.0466c1.91156-5.3382,3.88549-10.65833,5.98654-15.94162,2.0954-5.28766,4.28225-10.54718,6.83584-15.71137a66.03,66.03,0,0,1,4.36283-7.62848,21.24613,21.24613,0,0,1,1.39718-1.84762l.7779-.91056c.29824-.29974.63116-.5949.95053-.88836a6.56568,6.56568,0,0,1,2.66659-1.56784,4.68491,4.68491,0,0,1,3.969.5842,7.35954,7.35954,0,0,1,2.17935,2.303,15.0342,15.0342,0,0,1,1.1449,2.27924,29.94283,29.94283,0,0,1,1.36267,4.415,80.99939,80.99939,0,0,1,1.46765,8.65231c.69049,5.73618.99512,11.44541,1.21576,17.1449.74737,22.78928.001,45.4682-1.26139,68.10617q-2.07549,33.94312-5.54446,67.74353c-2.29163,22.53406-4.97153,45.026-8.2262,67.44733l-.5968-.06189c2.57889-45.2154,5.72956-90.34662,7.97748-135.47672l.83353-16.91717.69055-16.91239c.41913-11.2695.68585-22.54538.48575-33.77136-.10385-5.60907-.34336-11.21152-.85562-16.72824a76.08483,76.08483,0,0,0-1.15564-8.10742,27.06115,27.06115,0,0,0-1.02594-3.71948,10.35377,10.35377,0,0,0-.68915-1.54053,3.06453,3.06453,0,0,0-.63568-.82447c-.12912-.0708.08563-.05645-.08014-.04983a2.14619,2.14619,0,0,0-.94391.5802l-.62409.53229-.62286.68286a17.02485,17.02485,0,0,0-1.21637,1.491,62.95978,62.95978,0,0,0-4.3818,6.90078c-2.69971,4.85974-5.11155,9.951-7.43113,15.07874a629.05054,629.05054,0,0,0-23.71591,63.47784c-6.90051,21.5441-12.69192,43.43292-18.88412,65.18473q-4.65062,16.31377-9.52936,32.55944l-4.85523,16.25458-4.914,16.2392c-6.5881,21.64374-13.19287,43.2857-20.24621,64.8147Z" transform="translate(-142.63916 -146.27386)"/>
    <path class="cls-5" d="M359.128,318.79675a31.52615,31.52615,0,0,1,5.12122-5.18,15.9993,15.9993,0,0,1,3.11923-1.96643,7.66571,7.66571,0,0,1,3.68368-.82513,5.50056,5.50056,0,0,1,3.50742,1.562c.23688.21893.43646.46905.65546.70373.19647.24958.37439.51129.5617.7674a2.77922,2.77922,0,0,0,1.08725,1.05047,3.03282,3.03282,0,0,0,2.86218-.64605,15.33507,15.33507,0,0,0,2.57428-2.3241,71.91285,71.91285,0,0,0,8.06586-11.7691c2.38-4.14927,4.60083-8.41434,6.65177-12.72516l2.66766-5.60718-1.06329,6.12216c-3.183,18.32681-6.84424,36.55533-11.34656,54.63077a266.31412,266.31412,0,0,1-8.01068,26.8385A68.10671,68.10671,0,0,1,373.19,382.352a19.13251,19.13251,0,0,1-2.37927,2.99664,7.78615,7.78615,0,0,1-.75653.69428,6.48976,6.48976,0,0,1-.86994.64313c-.16049.10021-.30645.20263-.481.2976l-.5781.26453c-.09952.04175-.18948.08514-.29758.123l-.38021.09217a2.79873,2.79873,0,0,1-.82026.10156,3.31308,3.31308,0,0,1-.97024-.14984,3.58453,3.58453,0,0,1-.91483-.48865,5.36441,5.36441,0,0,1-.64581-.66705c-.13339-.21179-.26016-.43115-.3775-.65363a7.256,7.256,0,0,1-.58328-2.247,19.96745,19.96745,0,0,1-.004-3.82324,89.68677,89.68677,0,0,1,2.63382-13.989c1.16891-4.54633,2.49612-9.03449,3.92489-13.486q4.29333-13.35186,9.71094-26.29406a221.24974,221.24974,0,0,1,12.29428-25.31992,71.10434,71.10434,0,0,1,8.28705-11.8157,18.08949,18.08949,0,0,1,6.44125-4.877,9.64064,9.64064,0,0,1,1.1702-.361,8.55113,8.55113,0,0,1,1.2562-.1821,17.24265,17.24265,0,0,1,2.24243.06494,15.97271,15.97271,0,0,1,2.14456.467,18.29686,18.29686,0,0,1,1.97137.77,24.661,24.661,0,0,1,6.30619,4.528,65.13453,65.13453,0,0,1,4.97793,5.28463c3.09873,3.6092,5.92865,7.28476,8.86087,10.81479a107.93358,107.93358,0,0,0,9.14151,9.97986,41.97793,41.97793,0,0,0,10.53177,7.52155,26.74882,26.74882,0,0,0,12.03882,2.72564,33.50706,33.50706,0,0,0,12.29837-2.84765,69.68571,69.68571,0,0,0,11.58258-6.57807c3.76752-2.48523,7.34265-5.339,10.90027-8.20111,3.50519-2.94323,6.97479-5.94708,10.32617-9.10089,3.39411-3.1036,6.69373-6.32562,9.96759-9.57586,6.52124-6.52988,12.85358-13.27659,19.0669-20.1392q4.65472-5.15213,9.23193-10.38409l9.06757-10.544c6.02514-7.05261,11.89007-14.24774,17.70324-21.48666l.48578.35214c-5.17126,7.73667-10.67383,15.2334-16.22912,22.69931q-8.37516,11.166-17.29352,21.93149c-5.95435,7.16641-12.05676,14.22513-18.47486,21.0192A271.13381,271.13381,0,0,1,505.51471,312.088c-7.18774,6.08429-14.68817,11.98847-23.68845,16.07953a38.49939,38.49939,0,0,1-14.65176,3.43482,31.75013,31.75013,0,0,1-14.85455-3.4148,47.97491,47.97491,0,0,1-11.97229-8.70074,102.19113,102.19113,0,0,1-9.51093-10.68293c-2.9274-3.67346-5.69382-7.414-8.57745-10.9085a59.91043,59.91043,0,0,0-4.46524-4.943,19.306,19.306,0,0,0-4.8714-3.6839,13.47479,13.47479,0,0,0-1.25846-.51922,11.47152,11.47152,0,0,0-1.246-.29825c-.414-.0741-.81918-.019-1.23092-.06094a3.33993,3.33993,0,0,0-.46463.0541,4.69265,4.69265,0,0,0-.49283.14487,9.33515,9.33515,0,0,0-2.27893,1.35184,22.67515,22.67515,0,0,0-2.273,2.12662,66.62133,66.62133,0,0,0-7.84049,10.837,216.23086,216.23086,0,0,0-12.3743,24.59381c-3.66754,8.45941-7.00851,17.07874-9.95666,25.81738-1.47177,4.36939-2.84149,8.77112-4.04855,13.202a86.56077,86.56077,0,0,0-2.71982,13.31745,16.66454,16.66454,0,0,0-.05518,3.12963,4.13519,4.13519,0,0,0,.23648,1.11829.24132.24132,0,0,1,.04657.10663c.00659-.01142-.01282-.04682-.04257-.04114-.02582-.00958-.08725-.0896-.15366-.079-.06219-.00006-.07187-.04584-.11651-.02411a2.0325,2.0325,0,0,0,.65817-.30975,3.36735,3.36735,0,0,0,.53272-.38367,4.75222,4.75222,0,0,0,.53128-.47479,15.78292,15.78292,0,0,0,1.971-2.42511,65.2484,65.2484,0,0,0,5.90751-12.16577c3.28427-8.57758,5.90014-17.472,8.3489-26.39545,4.81873-17.88184,8.82514-36.02429,12.34506-54.22775l1.60431.515c-2.16485,4.33505-4.47207,8.56546-6.95742,12.71442a73.00219,73.00219,0,0,1-8.4534,11.83093,16.38018,16.38018,0,0,1-2.81983,2.44214,6.26217,6.26217,0,0,1-1.78607.82666,3.02936,3.02936,0,0,1-2.11319-.17218,3.75856,3.75856,0,0,1-1.46655-1.42969c-.16425-.23126-.31964-.47137-.48972-.69726-.18872-.20636-.36026-.434-.56109-.62592a4.57988,4.57988,0,0,0-2.91034-1.36877,6.84071,6.84071,0,0,0-3.29242.68591,15.2412,15.2412,0,0,0-3.00382,1.81744,30.8986,30.8986,0,0,0-5.09576,4.9621Z" transform="translate(-142.63916 -146.27386)"/>
    <path class="cls-5" d="M361.03137,283.84668c-21.12423,6.87439-42.21762,13.83881-63.21255,21.07556-21.02115,7.15241-41.97031,14.512-62.75052,22.27258-10.383,3.8971-20.715,7.921-30.93057,12.17994l-7.66945,3.15936-7.62087,3.245c-5.05458,2.196-10.13612,4.34394-15.07394,6.70472a103.4868,103.4868,0,0,0-14.24332,7.65832c-1.11323.70746-2.15724,1.5575-3.24336,2.33032l-1.5269,1.26471-.76584.63251-.7137.67187a27.62407,27.62407,0,0,0-4.97707,5.82544,11.297,11.297,0,0,0,.53872,13.60529,23.41935,23.41935,0,0,0,2.59991,2.95966,36.76,36.76,0,0,0,3.093,2.5968,44.65164,44.65164,0,0,0,7.01809,4.25787l-.205.56384a38.9117,38.9117,0,0,1-7.78016-3.33374,27.87153,27.87153,0,0,1-6.849-5.311,15.17554,15.17554,0,0,1-3.96208-8.23975,15.566,15.566,0,0,1,1.85016-9.13525c6.02662-10.71539,16.65666-16.65857,26.52861-21.7359,5.02138-2.55988,10.12854-4.84662,15.26587-7.06262,2.5758-1.0813,5.17314-2.1095,7.76168-3.15467l7.799-3.03c10.45639-3.87537,20.95716-7.5716,31.48519-11.17072,21.0478-7.21906,42.21613-14.0188,63.44462-20.60785q15.94194-4.87788,31.93075-9.58667,15.98393-4.7259,32.03687-9.21054Z" transform="translate(-142.63916 -146.27386)"/>
  </g>
</svg>
