<svg id="Layer_1" data-name="Layer 1" xmlns="http://www.w3.org/2000/svg" viewBox="0 0 49.90387 49.90243">
  <defs>
    <style>
      .cls-1 {
        fill: #f4b34c;
      }
    </style>
  </defs>
  <g>
    <path class="cls-1" d="M24.95193.09757A24.9593,24.9593,0,1,0,49.90387,25.04949,24.95158,24.95158,0,0,0,24.95193.09757Zm.79919,42.79516L25.725,41.71937q.87546-.01939,1.72823-.08208l.08552,1.17061Q26.65687,42.87218,25.75112,42.89273Zm3.56965-.262-.14685-1.16435q.87054-.1101,1.70761-.26322l.21118,1.15447Q30.22406,42.51649,29.32077,42.63072ZM44.44333,30.47936a8.66269,8.66269,0,0,1-.73067,3.46008,10.96441,10.96441,0,0,1-2.032,3.06212,18.13311,18.13311,0,0,1-7.07286,4.48985c-.00931.00345-.0189.00448-.0282.0073l.00057.002q-.84117.26439-1.732.48255l-.2789-1.13982q.848-.20761,1.64725-.45878a18.43511,18.43511,0,0,0,5.2895-2.94633,10.75588,10.75588,0,0,0,3.12955-3.96509,7.48834,7.48834,0,0,0,.63412-2.99389,7.67817,7.67817,0,0,0-1.01433-3.76309A10.50406,10.50406,0,0,0,40.5741,24.4998v6.47314L24.95164,39.99211l-15.622-9.01934V24.49962a10.39508,10.39508,0,0,0-1.75789,2.35707,7.47812,7.47812,0,0,0,.086,7.40271,11.44736,11.44736,0,0,0,2.89545,3.30449,19.861,19.861,0,0,0,7.15442,3.46691l.005-2.16449a.58672.58672,0,0,1,.90432-.492l5.20924,3.3525a.58675.58675,0,0,1-.00514.99027l-5.22472,3.28531a.58676.58676,0,0,1-.89915-.49818l.00758-3.261a23.01826,23.01826,0,0,1-5.67958-2.27091,14.08278,14.08278,0,0,1-5.39162-5.13977,8.65109,8.65109,0,0,1-.09729-8.52846,12.15517,12.15517,0,0,1,2.79344-3.41385V12.93369l15.62172-9.0196,15.62274,9.0196v9.95389a12.26789,12.26789,0,0,1,2.70678,3.2578A8.85215,8.85215,0,0,1,44.44333,30.47936Z" transform="translate(0 -0.09757)"/>
    <path class="cls-1" d="M26.98048,22.4469l-.587,1.01634-.855-.4937V38.29812l13.86178-8.00283V14.28889l-13.275,7.66428Zm10.67221,6.16168,1.52469.8804-.58686,1.01634L37.06584,29.625Zm-3.04919-1.7605,1.52468.88028-.587,1.01646-1.52468-.88023Zm-3.0492-1.76045,1.52468.88022-.587,1.01652L30.9675,26.104ZM28.505,23.32712l1.52469.88023-.58686,1.01634-1.52463-.88023Z" transform="translate(0 -0.09757)"/>
    <path class="cls-1" d="M10.50329,14.28889V29.89l.35086.60788,13.51067,7.80026V22.69745l-.35086-.60787Zm1.97,15.54647L11.8864,28.819l1.5012-.86679.5868,1.01652Zm3.00233-1.7334-.58686-1.01634,1.5012-.86678.58683,1.01634Zm3.00233-1.73351-.58683-1.01634,1.50117-.86679.58683,1.01635ZM21.48025,24.635l-.58682-1.01648,1.50116-.86664.587,1.01637Z" transform="translate(0 -0.09757)"/>
    <path class="cls-1" d="M25.5385,5.60811v.74411H24.36482V5.60811L11.09015,13.27255l13.86149,8.003,13.86213-8.003Zm0,14.828H24.36482V18.67562H25.5385Zm0-3.521H24.36482v-1.7605H25.5385Zm0-3.521H24.36482V11.63368H25.5385Zm0-3.521H24.36482V8.11273H25.5385Z" transform="translate(0 -0.09757)"/>
    <polygon class="cls-1" points="18.884 39.844 18.873 44.344 22.415 42.117 18.884 39.844"/>
  </g>
</svg>
