<svg id="Layer_1" data-name="Layer 1" xmlns="http://www.w3.org/2000/svg" viewBox="0 0 50 50">
  <defs>
    <style>
      .cls-1 {
        fill: #f4b34c;
      }
    </style>
  </defs>
  <path class="cls-1" d="M25,0A25,25,0,1,0,50,25,24.99631,24.99631,0,0,0,25,0ZM16.89,36.81a2.39207,2.39207,0,0,1,2-.81,3.60063,3.60063,0,0,0-1.7-.14,4.67679,4.67679,0,0,1,2.61-.19l1.85-3.41-1.8-1.01,2.56,1.06L20.03,35.72a4.6702,4.6702,0,0,1,1.66.81A7.0634,7.0634,0,0,0,16.89,36.81Zm6.08-.18A3.21486,3.21486,0,0,0,21.58,35.88l.15-.21,1.96-2.9.21.09-1.94,2.92A3.18467,3.18467,0,0,1,22.97,36.63Zm10.36-.04L15.56,29.16l-1.4-5.84L7.33,22.73l5.79-3.76,8.49,5.24L35.07,13.19l-3.63,8.33,11.23-4.35L28.1,29.16Z"/>
</svg>
