<svg id="Layer_1" data-name="Layer 1" xmlns="http://www.w3.org/2000/svg" viewBox="0 0 49.77419 49.77419">
  <defs>
    <style>
      .cls-1 {
        fill: #f4b34c;
      }
    </style>
  </defs>
  <g>
    <path class="cls-1" d="M18.17646,33.99609a2.64008,2.64008,0,1,1-4.73929-1.1482,2.63973,2.63973,0,0,1,4.73929,1.1482Z" transform="translate(-0.22581 -0.22581)"/>
    <path class="cls-1" d="M20.8745,35.22463c.02362-.17013.04251-.34965.052-.52451l.01416-.22206,1.07734-.81274L21.92819,33.07l-1.27105-.3922-.085-.21736a4.75062,4.75062,0,0,0-.21264-.47724L20.26022,31.78l.5245-1.238-.378-.47251-1.29467.29768-.17956-.14647c-.137-.10867-.27876-.21264-.42524-.30712l-.189-.12286-.16064-1.34194-.56229-.21736-.97337.90251-.23155-.03308a4.813,4.813,0,0,0-.52448-.0567L15.64381,29.03l-.81273-1.07731-.59537.09451-.39216,1.26632-.21737.085c-.16063.06143-.326.137-.482.21264l-.19845.10394-1.2427-.52921-.46778.378.29768,1.2947-.14648.17953c-.10867.137-.21263.27879-.31187.43l-.11813.18429-1.34191.16536-.21737.56229.90251.97337-.0378.2268c-.02362.17482-.04254.34968-.052.5245l-.01419.22207-1.07731.81273.09451.59534,1.26632.39219.08505.21737c.06143.16536.137.326.21263.48194l.10394.19847-.52921,1.24271.378.46778,1.29467-.293.17955.14175q.20557.163.42528.31184l.189.12286.16067,1.33721.56229.21737.97337-.90251.23152.03781a4.92921,4.92921,0,0,0,.52448.052l.2221.01418.8127,1.07731.59537-.08978.39219-1.27105.21736-.08505a4.81723,4.81723,0,0,0,.48194-.21263l.19848-.09921,1.24267.52921.46781-.378-.29768-1.29941.14648-.17955q.163-.20558.31184-.42527l.11813-.189,1.34194-.16064.21733-.56229-.90248-.97336ZM18.47887,36.524a3.59937,3.59937,0,0,1-2.35312,1.43642,3.817,3.817,0,0,1-.567.04254,3.59954,3.59954,0,1,1,2.92011-1.479Z" transform="translate(-0.22581 -0.22581)"/>
    <path class="cls-1" d="M25.1129.22581A24.8871,24.8871,0,1,0,50,25.1129,24.8864,24.8864,0,0,0,25.1129.22581ZM22.84959,36.21689l-.63791,1.65851-1.47422.17956c-.03308.04251-.06143.085-.09451.12759l.326,1.43169-1.38445,1.11511L18.219,40.14818c-.04727.02362-.09451.04254-.14648.06616l-.43,1.40334-1.75772.27406-.89305-1.186c-.052-.00473-.104-.00946-.16067-.01889l-1.07258.997L12.09526,41.046l-.17483-1.47426c-.04727-.03305-.08978-.0614-.13232-.09448l-1.43169.326L9.24131,38.4188l.58117-1.36556c-.02362-.04727-.04253-.09451-.06615-.14648l-1.39864-.43L8.07892,34.719l1.186-.89305c.00943-.052.01416-.10394.01889-.15594l-.997-1.0773.63787-1.65852,1.47423-.17956c.03308-.04253.06143-.085.09451-.12758l-.326-1.43642,1.38445-1.11512,1.36556.58118c.04724-.01889.09924-.04251.14648-.06143l.4347-1.40334,1.753-.27879.89305,1.19073c.052.00473.10867.00943.16064.01416l1.07734-.997,1.65851.63788.17956,1.479c.04251.02835.085.06143.12755.08977l1.43172-.326,1.11512,1.38448-.58118,1.36553c.02362.04727.04251.09924.06616.14648l1.40334.43473.27407,1.753-1.186.89306c-.00473.052-.01419.10866-.01889.16066Zm1.616,1.28051v-.95921H40.91364l-1.46-5.84494-7.17273-3.43043a4.052,4.052,0,0,1-7.65464.03781L22.2306,28.463l-.42054-.86,2.60354-1.26632a3.48545,3.48545,0,0,1-.01892-.38746v-.74658a5.08855,5.08855,0,0,1-2.27747-3.78008,2.35145,2.35145,0,0,1-1.02064-1.05842,2.04955,2.04955,0,0,1-.14648-1.186h-1.082V17.40627l1.05842-.46779V15.69105a6.6106,6.6106,0,0,1,1.66325-4.3471,7.61512,7.61512,0,0,1,3.85094-2.3342,1.054,1.054,0,0,1,.99228-.68041h2.21135a1.04568,1.04568,0,0,1,1.00645.72768,7.02981,7.02981,0,0,1,5.33462,6.634v1.3561l.87414.46778v1.66325h-.94029a2.00928,2.00928,0,0,1-.10394,1.26632,2.15843,2.15843,0,0,1-.96394.98756A5.11433,5.11433,0,0,1,32.503,25.25465v.69461c0,.11812-.00946.23625-.01889.34965l7.79168,3.72338,1.8664,7.47511Zm11.43475-19.406-.87887-.46778V15.69105a6.03486,6.03486,0,0,0-4.3282-5.61815v3.76592h-.95918v-4.503c0-.00944-.02835-.04251-.08978-.04251H27.43294c-.06142,0-.08977.03307-.08977.04251v4.503H26.384V10.02093a6.03264,6.03264,0,0,0-4.49831,5.67012V17.5622L20.82723,18.03v.189H35.90032Zm-1.99871,3.024V20.7658l.33546-.10393a1.29159,1.29159,0,0,0,.69931-.61426,1.22189,1.22189,0,0,0-.00943-.86943H21.92819a1.24153,1.24153,0,0,0,.04254.79381,1.534,1.534,0,0,0,.77489.69461l.32131.11339v.33547c0,2.40982,2.42871,4.37072,5.4197,4.37072C31.4729,25.48618,33.90161,23.52528,33.90161,21.11546Zm-8.54772,4.64005v.19375a3.09259,3.09259,0,1,0,6.18517,0v-.15594a7.464,7.464,0,0,1-6.18517-.03781Z" transform="translate(-0.22581 -0.22581)"/>
  </g>
</svg>
